<mxfile host="Electron" agent="Mozilla/5.0 (X11; Linux x86_64) AppleWebKit/537.36 (KHTML, like Gecko) draw.io/25.0.1 Chrome/128.0.6613.186 Electron/32.2.6 Safari/537.36" version="25.0.1">
  <diagram id="lJ-8LjbVVjezNdhwLCFv" name="Page-1">
    <mxGraphModel dx="1434" dy="834" grid="1" gridSize="10" guides="1" tooltips="1" connect="1" arrows="1" fold="1" page="1" pageScale="1" pageWidth="850" pageHeight="1100" math="0" shadow="0">
      <root>
        <mxCell id="0" />
        <mxCell id="1" parent="0" />
        <mxCell id="m6xWMj18up9yWjOXeIBj-14" value="" style="rounded=1;whiteSpace=wrap;html=1;fontSize=14;fillColor=#f5f5f5;fontColor=#333333;strokeColor=#666666;" parent="1" vertex="1">
          <mxGeometry x="160" y="80" width="200" height="320" as="geometry" />
        </mxCell>
        <mxCell id="m6xWMj18up9yWjOXeIBj-4" value="UART" style="edgeStyle=orthogonalEdgeStyle;rounded=0;orthogonalLoop=1;jettySize=auto;html=1;entryX=0;entryY=0.5;entryDx=0;entryDy=0;fontSize=14;startArrow=classic;startFill=1;" parent="1" source="m6xWMj18up9yWjOXeIBj-1" target="m6xWMj18up9yWjOXeIBj-2" edge="1">
          <mxGeometry relative="1" as="geometry" />
        </mxCell>
        <mxCell id="m6xWMj18up9yWjOXeIBj-1" value="IMBootloader" style="rounded=1;whiteSpace=wrap;html=1;fillColor=#d5e8d4;gradientColor=#97d077;strokeColor=#82b366;fontSize=14;fontStyle=1" parent="1" vertex="1">
          <mxGeometry x="160" y="80" width="200" height="120" as="geometry" />
        </mxCell>
        <mxCell id="m6xWMj18up9yWjOXeIBj-2" value="IMFlasher" style="rounded=1;whiteSpace=wrap;html=1;fillColor=#f5f5f5;gradientColor=#b3b3b3;strokeColor=#666666;fontSize=14;fontStyle=1" parent="1" vertex="1">
          <mxGeometry x="480" y="280" width="200" height="120" as="geometry" />
        </mxCell>
        <mxCell id="m6xWMj18up9yWjOXeIBj-5" value="File Browse" style="edgeStyle=orthogonalEdgeStyle;rounded=0;orthogonalLoop=1;jettySize=auto;html=1;fontSize=14;startArrow=none;startFill=0;entryX=1;entryY=0.5;entryDx=0;entryDy=0;" parent="1" source="m6xWMj18up9yWjOXeIBj-3" target="m6xWMj18up9yWjOXeIBj-9" edge="1">
          <mxGeometry relative="1" as="geometry">
            <mxPoint x="770" y="250" as="targetPoint" />
            <Array as="points">
              <mxPoint x="730" y="340" />
              <mxPoint x="730" y="220" />
            </Array>
          </mxGeometry>
        </mxCell>
        <mxCell id="m6xWMj18up9yWjOXeIBj-13" style="edgeStyle=orthogonalEdgeStyle;rounded=0;orthogonalLoop=1;jettySize=auto;html=1;entryX=0.5;entryY=1;entryDx=0;entryDy=0;fontSize=14;startArrow=none;startFill=0;" parent="1" source="m6xWMj18up9yWjOXeIBj-3" target="m6xWMj18up9yWjOXeIBj-7" edge="1">
          <mxGeometry relative="1" as="geometry" />
        </mxCell>
        <mxCell id="m6xWMj18up9yWjOXeIBj-3" value="IMLedBlink&lt;br&gt;(Firmware)" style="rounded=1;whiteSpace=wrap;html=1;fillColor=#fff2cc;gradientColor=#ffd966;strokeColor=#d6b656;fontSize=14;fontStyle=1" parent="1" vertex="1">
          <mxGeometry x="800" y="280" width="200" height="120" as="geometry" />
        </mxCell>
        <mxCell id="m6xWMj18up9yWjOXeIBj-8" style="edgeStyle=orthogonalEdgeStyle;rounded=0;orthogonalLoop=1;jettySize=auto;html=1;fontSize=14;startArrow=none;startFill=0;entryX=0.5;entryY=0;entryDx=0;entryDy=0;" parent="1" source="m6xWMj18up9yWjOXeIBj-7" target="m6xWMj18up9yWjOXeIBj-9" edge="1">
          <mxGeometry relative="1" as="geometry">
            <mxPoint x="580" y="190" as="targetPoint" />
          </mxGeometry>
        </mxCell>
        <mxCell id="m6xWMj18up9yWjOXeIBj-10" value="URL" style="edgeLabel;html=1;align=center;verticalAlign=middle;resizable=0;points=[];fontSize=14;" parent="m6xWMj18up9yWjOXeIBj-8" vertex="1" connectable="0">
          <mxGeometry x="-0.0312" relative="1" as="geometry">
            <mxPoint as="offset" />
          </mxGeometry>
        </mxCell>
        <mxCell id="m6xWMj18up9yWjOXeIBj-7" value="Server" style="rounded=1;whiteSpace=wrap;html=1;fillColor=#dae8fc;gradientColor=#7ea6e0;strokeColor=#6c8ebf;fontSize=14;fontStyle=1" parent="1" vertex="1">
          <mxGeometry x="800" y="80" width="200" height="120" as="geometry" />
        </mxCell>
        <mxCell id="m6xWMj18up9yWjOXeIBj-12" style="edgeStyle=orthogonalEdgeStyle;rounded=0;orthogonalLoop=1;jettySize=auto;html=1;entryX=0.5;entryY=0;entryDx=0;entryDy=0;fontSize=14;startArrow=none;startFill=0;" parent="1" source="m6xWMj18up9yWjOXeIBj-9" target="m6xWMj18up9yWjOXeIBj-2" edge="1">
          <mxGeometry relative="1" as="geometry" />
        </mxCell>
        <mxCell id="m6xWMj18up9yWjOXeIBj-9" value="" style="rhombus;whiteSpace=wrap;html=1;fontSize=14;" parent="1" vertex="1">
          <mxGeometry x="555" y="200" width="50" height="40" as="geometry" />
        </mxCell>
        <mxCell id="m6xWMj18up9yWjOXeIBj-16" value="Firmware" style="rounded=1;whiteSpace=wrap;html=1;fillColor=#fff2cc;strokeColor=#000000;fontSize=14;fontStyle=1;dashed=1;" parent="1" vertex="1">
          <mxGeometry x="160" y="200" width="200" height="120" as="geometry" />
        </mxCell>
      </root>
    </mxGraphModel>
  </diagram>
</mxfile>
